<svg xmlns="http://www.w3.org/2000/svg" viewBox="0 0 300 100" width="300" height="100">
  <!-- Blue C letter - bold rounded shape -->
  <path d="M 15 50 
           C 15 25, 35 15, 50 15 
           L 50 25 
           C 38 25, 25 32, 25 50 
           C 25 68, 38 75, 50 75 
           L 50 85 
           C 35 85, 15 75, 15 50 Z" 
        fill="#2563eb"/>
  
  <!-- Green Pickleball inside C -->
  <circle cx="40" cy="50" r="14" fill="#84cc16" stroke="#65a30d" stroke-width="0.5"/>
  <!-- Pickleball holes -->
  <circle cx="36" cy="46" r="1.5" fill="white"/>
  <circle cx="40" cy="43" r="1.5" fill="white"/>
  <circle cx="44" cy="46" r="1.5" fill="white"/>
  <circle cx="36" cy="50" r="1.5" fill="white"/>
  <circle cx="44" cy="50" r="1.5" fill="white"/>
  <circle cx="36" cy="54" r="1.5" fill="white"/>
  <circle cx="40" cy="57" r="1.5" fill="white"/>
  <circle cx="44" cy="54" r="1.5" fill="white"/>
  <circle cx="40" cy="50" r="1" fill="white"/>
  
  <!-- OURTS text in blue - bold sans-serif -->
  <text x="70" y="68" font-family="'Inter', 'Arial', 'Helvetica', sans-serif" font-size="58" font-weight="700" fill="#2563eb" letter-spacing="-1">OURTS</text>
</svg>
